<svg width="540" height="186" viewBox="0 0 540 186" fill="none" xmlns="http://www.w3.org/2000/svg">
<path d="M470.108 129.706C469.034 130.615 468.043 131.07 467.134 131.07C465.73 131.07 464.449 130.243 463.293 128.59C462.136 126.937 461.558 125.449 461.558 124.126C461.558 123.547 461.764 122.969 462.177 122.39C462.508 121.811 463.21 121.109 464.284 120.282C471.058 114.578 477.667 107.552 484.111 99.2024C490.473 90.8532 496.917 80.8507 503.443 69.1948C503.361 68.2855 503.319 67.3762 503.319 66.4669C503.319 62.3336 504.063 59.275 505.55 57.291C507.12 55.307 508.4 54.1084 509.392 53.6951C510.796 53.3644 512.283 53.4057 513.853 53.819C515.505 54.1497 516.992 54.7284 518.314 55.555C519.636 56.3817 520.544 57.3737 521.04 58.531C518.644 63.2429 516.414 67.5829 514.348 71.5508C514.927 72.5428 515.712 73.5348 516.703 74.5268C517.694 75.5187 518.934 76.6347 520.421 77.8747L529.839 85.5626C533.226 88.2906 535.746 91.1425 537.398 94.1185C539.133 97.0118 540 100.277 540 103.914C540 107.717 539.05 111.148 537.15 114.206C535.25 117.265 532.606 119.662 529.219 121.398C525.832 123.134 521.908 124.002 517.446 124.002C514.555 124.002 511.663 123.547 508.772 122.638C505.88 121.811 502.865 120.447 499.726 118.546C499.56 114.165 501.213 110.941 504.682 108.874C509.226 111.85 513.522 113.338 517.57 113.338C521.04 113.338 523.808 112.429 525.873 110.61C527.939 108.709 528.971 106.312 528.971 103.418C528.971 99.7811 526.988 96.3918 523.023 93.2505L513.605 85.8106C511.787 84.4053 510.259 82.9173 509.02 81.3467C504.559 89.1999 500.345 95.8958 496.38 101.434C492.414 106.973 488.325 111.974 484.111 116.438C479.898 120.902 475.23 125.325 470.108 129.706Z" fill="#1F1F1F"/>
<path d="M383.258 124.001C382.019 124.001 381.069 123.505 380.408 122.513C379.664 121.521 379.292 120.24 379.292 118.669C379.292 117.016 379.706 115.735 380.532 114.825C381.358 113.916 382.432 113.461 383.754 113.461C389.619 113.461 394.824 111.808 399.368 108.501C403.994 105.112 407.629 100.483 410.273 94.6137C412.917 88.7444 414.238 82.0485 414.238 74.5259V63.7381C414.982 63.4901 415.849 63.2834 416.841 63.1181C417.832 62.9528 418.865 62.8701 419.939 62.8701C421.839 62.8701 423.698 63.1594 425.515 63.7381V92.3817C425.515 106.104 430.514 112.965 440.51 112.965C446.376 112.965 450.672 110.609 453.398 105.898C456.207 101.103 457.611 94.5723 457.611 86.3058V63.7381C459.346 63.1594 461.205 62.8701 463.188 62.8701C465.253 62.8701 467.153 63.1594 468.888 63.7381V156.985C468.888 176.328 461.825 186 447.697 186C441.171 186 436.049 184.058 432.331 180.172C428.696 176.287 426.879 170.955 426.879 164.177C426.879 149.049 437.205 134.872 457.859 121.645V115.817C453.15 121.273 446.871 124.001 439.023 124.001C432.992 124.001 427.994 122.513 424.028 119.537C420.145 116.561 417.419 112.221 415.849 106.517C412.132 111.973 407.464 116.272 401.846 119.413C396.311 122.472 390.115 124.001 383.258 124.001ZM438.032 163.929C438.032 167.483 438.858 170.253 440.51 172.237C442.162 174.303 444.434 175.337 447.326 175.337C454.348 175.337 457.859 169.219 457.859 156.985V134.789C444.641 144.13 438.032 153.843 438.032 163.929Z" fill="#1F1F1F"/>
<path d="M340.334 124.001C339.26 124.001 338.393 123.505 337.732 122.513C337.071 121.521 336.74 120.24 336.74 118.669C336.74 115.115 338.227 113.337 341.201 113.337C343.597 113.337 346.034 112.965 348.513 112.221C350.991 111.395 353.883 110.031 357.187 108.129C353.965 102.508 352.354 95.8948 352.354 88.2896C352.354 83.1643 353.304 78.6591 355.205 74.7738C357.105 70.8058 359.748 67.7059 363.136 65.4739C366.523 63.1593 370.364 62.002 374.66 62.002C378.295 62.002 381.517 62.8699 384.326 64.6059C387.135 66.2592 389.324 68.5739 390.894 71.5498C392.464 74.5258 393.249 77.9564 393.249 81.8417C393.249 87.1323 391.679 91.9682 388.54 96.3495C385.483 100.731 380.278 105.484 372.925 110.609C375.569 112.511 379.122 113.461 383.583 113.461C384.739 113.461 385.648 113.957 386.309 114.949C386.97 115.941 387.3 117.264 387.3 118.917C387.3 120.488 386.929 121.728 386.185 122.637C385.442 123.546 384.368 124.001 382.963 124.001C378.998 124.001 375.28 123.34 371.81 122.017C368.34 120.694 365.449 118.876 363.136 116.561C355.205 121.521 347.604 124.001 340.334 124.001ZM363.136 87.2976C363.136 93.8282 364.292 99.0361 366.605 102.921C371.975 99.2014 375.941 95.5641 378.502 92.0095C381.146 88.4549 382.467 85.0656 382.467 81.8417C382.467 78.8657 381.724 76.5511 380.237 74.8978C378.832 73.1618 376.85 72.2938 374.289 72.2938C371.067 72.2938 368.382 73.7405 366.234 76.6337C364.168 79.527 363.136 83.0817 363.136 87.2976Z" fill="#1F1F1F"/>
<path d="M282.06 100.441C278.838 98.0435 277.02 94.7369 276.607 90.521C280.407 88.289 283.918 85.5611 287.14 82.3371V25.6699C287.14 17.4033 288.875 11.0381 292.345 6.57417C295.897 2.11023 301.02 -0.08041 307.711 0.00225446C313.825 0.0849189 318.575 2.39955 321.962 6.94616C325.432 11.4928 327.167 17.4033 327.167 24.6779C327.167 30.7125 326.341 36.9124 324.689 43.2777C323.119 49.5602 320.641 55.8841 317.253 62.2494C318.245 62.084 319.277 62.0014 320.351 62.0014C325.721 62.0014 330.017 63.6134 333.239 66.8373C336.461 70.0613 338.072 74.3185 338.072 79.6091C338.072 83.9077 336.544 87.7104 333.487 91.017C330.43 94.3236 326.341 96.8036 321.219 98.4569C322.871 99.6142 324.4 100.978 325.804 102.549L329.893 107.261C333.446 111.311 337.205 113.337 341.17 113.337C342.244 113.337 343.112 113.833 343.773 114.825C344.434 115.817 344.764 117.139 344.764 118.793C344.764 122.265 343.236 124.001 340.179 124.001C337.453 124.001 334.726 123.298 332 121.893C329.356 120.405 326.795 118.379 324.317 115.817L319.112 110.237C317.129 108.087 315.271 106.434 313.536 105.277C311.801 104.037 309.777 103.21 307.464 102.797C305.233 102.301 302.3 102.053 298.665 102.053C298.582 103.375 298.541 104.698 298.541 106.021V122.265C297.715 122.513 296.806 122.719 295.815 122.885C294.823 123.05 293.873 123.133 292.965 123.133C291.064 123.133 289.123 122.843 287.14 122.265V96.9689C285.158 98.5395 283.464 99.6968 282.06 100.441ZM298.169 25.5459V73.7812C304.035 65.184 308.496 56.7108 311.553 48.3616C314.61 39.9297 316.138 31.9938 316.138 24.5539C316.138 19.9246 315.353 16.4114 313.784 14.0141C312.296 11.5341 310.107 10.2941 307.216 10.2941C301.185 10.2941 298.169 15.378 298.169 25.5459ZM318.369 71.7973C313.99 71.7973 310.148 73.7399 306.844 77.6252C303.622 81.5104 301.309 86.6357 299.904 93.001C301.309 93.1663 302.92 93.2489 304.737 93.2489C309.033 93.2489 312.875 92.6703 316.262 91.513C319.649 90.3557 322.293 88.785 324.193 86.801C326.176 84.8171 327.167 82.5851 327.167 80.1051C327.167 77.6252 326.341 75.6412 324.689 74.1532C323.119 72.5826 321.012 71.7973 318.369 71.7973Z" fill="#1F1F1F"/>
<path d="M238.697 122.265V57.7856H254.931V70.0614C256.005 65.4321 258.194 61.9189 261.498 59.5216C264.803 57.0416 269.264 55.9669 274.882 56.2976V72.0454H272.527C267.736 72.0454 263.688 73.5747 260.383 76.6333C257.079 79.6919 255.426 83.9079 255.426 89.2811V122.265H238.697Z" fill="#1F1F1F"/>
<path d="M191.705 123.878C185.839 123.878 180.469 122.39 175.595 119.414C170.803 116.355 166.962 112.305 164.07 107.262C161.261 102.137 159.857 96.4743 159.857 90.2744C159.857 85.6451 160.683 81.3052 162.335 77.2546C163.988 73.1213 166.26 69.5253 169.151 66.4667C172.043 63.3254 175.388 60.8868 179.189 59.1508C183.072 57.3322 187.244 56.4229 191.705 56.4229C197.323 56.4229 201.701 57.4975 204.841 59.6468C207.98 61.7134 210.417 64.4827 212.152 67.9547V57.7868H228.758V122.266H212.524V111.726C210.789 115.363 208.31 118.298 205.088 120.53C201.949 122.762 197.488 123.878 191.705 123.878ZM194.431 108.75C198.149 108.75 201.33 107.923 203.973 106.27C206.699 104.534 208.806 102.261 210.293 99.4502C211.78 96.6396 212.524 93.581 212.524 90.2744C212.524 86.8851 211.78 83.7851 210.293 80.9745C208.806 78.1639 206.699 75.8906 203.973 74.1546C201.33 72.4186 198.149 71.5506 194.431 71.5506C190.879 71.5506 187.739 72.4186 185.013 74.1546C182.369 75.8079 180.304 78.0399 178.817 80.8505C177.33 83.6611 176.586 86.7611 176.586 90.1504C176.586 93.3743 177.33 96.433 178.817 99.3262C180.304 102.137 182.369 104.41 185.013 106.146C187.739 107.882 190.879 108.75 194.431 108.75Z" fill="#1F1F1F"/>
<path d="M135.666 147.066V112.718C133.931 116.107 131.494 118.835 128.355 120.902C125.216 122.886 120.878 123.878 115.343 123.878C109.477 123.878 104.107 122.39 99.2332 119.414C94.4416 116.355 90.6 112.305 87.7085 107.262C84.8996 102.137 83.4951 96.4743 83.4951 90.2744C83.4951 85.6451 84.3213 81.3052 85.9736 77.2546C87.6259 73.1213 89.8978 69.5253 92.7893 66.4667C95.6808 63.3254 99.0267 60.8868 102.827 59.1508C106.71 57.3322 110.882 56.4229 115.343 56.4229C120.961 56.4229 125.339 57.4975 128.479 59.6468C131.701 61.7961 134.179 64.6481 135.914 68.2027V57.7868H152.396V147.066H135.666ZM118.069 108.75C121.787 108.75 124.968 107.923 127.611 106.27C130.338 104.534 132.444 102.261 133.931 99.4502C135.418 96.6396 136.162 93.581 136.162 90.2744C136.162 86.8851 135.418 83.7851 133.931 80.9745C132.444 78.1639 130.338 75.8906 127.611 74.1546C124.968 72.4186 121.787 71.5506 118.069 71.5506C114.517 71.5506 111.378 72.4186 108.651 74.1546C106.008 75.8079 103.942 78.0399 102.455 80.8505C100.968 83.6611 100.225 86.7611 100.225 90.1504C100.225 93.3743 100.968 96.433 102.455 99.3262C103.942 102.137 106.008 104.41 108.651 106.146C111.378 107.882 114.517 108.75 118.069 108.75Z" fill="#1F1F1F"/>
<path d="M0 122.265L35.4417 35.4658H50.4363L85.754 122.265H66.9179L60.9696 105.773H24.7844L18.8361 122.265H0ZM39.779 67.0854L30.4848 90.769H55.2692L45.9751 67.0854C44.7358 63.7788 43.7032 60.4721 42.877 57.1655C42.0509 60.7201 41.0182 64.0268 39.779 67.0854Z" fill="#1F1F1F"/>
</svg>
